<?xml version="1.0" encoding="UTF-8" standalone="no"?>
<!-- Created with Inkscape (http://www.inkscape.org/) -->

<svg
   width="85.206268mm"
   height="12.02266mm"
   viewBox="0 0 85.206269 12.02266"
   version="1.1"
   id="svg1"
   inkscape:version="1.4.3 (0d15f75, 2025-12-25)"
   sodipodi:docname="logo.svg"
   xmlns:inkscape="http://www.inkscape.org/namespaces/inkscape"
   xmlns:sodipodi="http://sodipodi.sourceforge.net/DTD/sodipodi-0.dtd"
   xmlns="http://www.w3.org/2000/svg"
   xmlns:svg="http://www.w3.org/2000/svg">
  <sodipodi:namedview
     id="namedview1"
     pagecolor="#ffffff"
     bordercolor="#000000"
     borderopacity="0.25"
     inkscape:showpageshadow="2"
     inkscape:pageopacity="0.0"
     inkscape:pagecheckerboard="0"
     inkscape:deskcolor="#d1d1d1"
     inkscape:document-units="mm"
     inkscape:zoom="1.5554293"
     inkscape:cx="142.08296"
     inkscape:cy="85.828395"
     inkscape:window-width="1848"
     inkscape:window-height="1022"
     inkscape:window-x="72"
     inkscape:window-y="30"
     inkscape:window-maximized="0"
     inkscape:current-layer="text2" />
  <defs
     id="defs1">
    <rect
       x="156.86987"
       y="372.88742"
       width="441.0358"
       height="87.435669"
       id="rect1" />
  </defs>
  <g
     inkscape:label="Warstwa 1"
     inkscape:groupmode="layer"
     id="layer1"
     transform="translate(-29.358561,-87.827082)">
    <g
       id="text2"
       style="font-size:16.9333px;line-height:0;font-family:'Exo 2';-inkscape-font-specification:'Exo 2, ';letter-spacing:1.32292px;fill-opacity:0;stroke-width:0.264583"
       aria-label="MEDILIVE">
      <path
         style="font-style:italic;font-weight:bold;-inkscape-font-specification:'Exo 2 Bold Italic';fill:#1a1a1a;fill-opacity:1"
         d="m 43.040655,87.996428 q 0.474133,0 0.711199,0.270932 0.237066,0.270933 0.186266,0.728132 l -1.066798,10.684913 h -2.404528 l 0.999064,-9.685848 h -0.287866 l -2.878661,7.315186 q -0.135466,0.406399 -0.389466,0.592665 -0.253999,0.186266 -0.694265,0.186266 h -1.59173 q -0.423333,0 -0.677332,-0.220132 -0.254,-0.237067 -0.3048,-0.643466 l -0.880531,-7.230519 h -0.3048 l -1.710263,9.685848 h -2.387595 l 1.947329,-10.786512 q 0.08467,-0.4572 0.3048,-0.677332 0.237066,-0.220133 0.694265,-0.220133 h 2.387595 q 0.406399,0 0.643466,0.237066 0.237066,0.220133 0.270932,0.643465 l 0.728132,5.858922 q 0.0508,0.423333 0.06773,0.846665 0.01693,0.406399 0.01693,0.829732 h 0.253999 q 0.135467,-0.457199 0.254,-0.846665 0.135466,-0.406399 0.287866,-0.795865 l 2.285995,-5.994389 q 0.135467,-0.406399 0.389466,-0.592665 0.270933,-0.186266 0.677332,-0.186266 z m 7.232654,-0.0508 q 0.965198,0 1.913463,0.01693 0.965198,0 1.879596,0.0508 0.914399,0.03387 1.69333,0.118533 l -0.304799,1.862663 h -4.368791 q -0.491066,0 -0.728132,0.220133 -0.237067,0.2032 -0.3048,0.694265 l -0.812798,5.892789 q -0.06773,0.440265 0.118533,0.660398 0.186266,0.220133 0.660399,0.220133 h 4.317991 l -0.0508,1.879597 q -0.778932,0.101599 -1.676396,0.118533 -0.880532,0.03387 -1.79493,0.03387 -0.897465,0.01693 -1.761063,0.01693 -1.354664,0 -1.981197,-0.761999 -0.626532,-0.778932 -0.457199,-2.015063 l 0.931332,-6.705586 q 0.1524,-1.066798 0.846665,-1.676397 0.694265,-0.626532 1.879596,-0.626532 z m -2.743194,4.758257 h 6.891853 l -0.220133,1.811863 h -6.959587 z m 15.767023,-4.87679 q 1.84573,0 2.929461,0.558799 1.100665,0.541865 1.473197,1.879596 0.372533,1.320797 0.03387,3.674526 -0.254,1.811863 -0.677332,2.980261 -0.423333,1.151464 -1.083731,1.79493 -0.660399,0.626532 -1.659464,0.880531 -0.999065,0.254 -2.387595,0.254 -1.219198,0 -2.370662,-0.0508 -1.151465,-0.0508 -2.201329,-0.118533 l 1.269997,-1.913463 q 0.626532,0.03387 1.540931,0.06773 0.914398,0.01693 1.727196,0.01693 0.711199,0 1.219198,-0.152399 0.524932,-0.169333 0.880531,-0.609599 0.372533,-0.440266 0.609599,-1.236131 0.254,-0.812799 0.423333,-2.116663 0.169333,-1.202264 0.169333,-1.964262 0,-0.778932 -0.2032,-1.202265 -0.186266,-0.423332 -0.626532,-0.592665 -0.440266,-0.169333 -1.151464,-0.169333 -0.524933,0 -1.100665,0.01693 -0.575732,0 -1.134531,0 -0.541866,0 -0.999065,0 L 58.99608,87.996428 q 0.609599,-0.0508 1.337731,-0.08467 0.728132,-0.0508 1.49013,-0.06773 0.761999,-0.01693 1.473197,-0.01693 z m -1.710263,0.169333 -1.64253,11.683977 H 57.35355 l 1.64253,-11.683977 z m 12.854492,0 -1.64253,11.683977 h -2.590795 l 1.64253,-11.683977 z"
         id="path1" />
      <path
         style="font-style:italic;font-weight:bold;-inkscape-font-specification:'Exo 2 Bold Italic';fill:#67c090;fill-opacity:1"
         d="m 80.674941,87.996428 -1.253064,8.703716 q -0.0508,0.440266 0.1016,0.677332 0.169333,0.220133 0.660399,0.220133 h 4.047058 l -0.0508,1.964263 q -1.134531,0.118533 -2.455328,0.135466 -1.320798,0.03387 -2.607728,0.03387 -0.778932,0 -1.354664,-0.321733 -0.558799,-0.321733 -0.829732,-0.897465 -0.254,-0.575732 -0.135466,-1.371597 l 1.269997,-9.143982 z m 10.348373,0 -1.64253,11.683977 h -2.590795 l 1.64253,-11.683977 z m 13.142356,0 -4.758256,11.023578 q -0.254,0.660399 -0.931332,0.660399 h -2.353728 q -0.338666,0 -0.575733,-0.220133 -0.220132,-0.220133 -0.253999,-0.541866 L 93.616225,87.996428 h 2.607728 l 0.948265,8.36505 q 0.03387,0.355599 0.0508,0.711198 0.03387,0.3556 0.03387,0.694266 h 0.440266 q 0.08467,-0.3556 0.203199,-0.694266 0.118533,-0.355599 0.254,-0.694265 l 3.28506,-8.381983 z m 4.91279,-0.0508 q 0.9652,0 1.91346,0.01693 0.9652,0 1.8796,0.0508 0.9144,0.03387 1.69333,0.118533 l -0.3048,1.862663 h -4.36879 q -0.49107,0 -0.72814,0.220133 -0.23706,0.2032 -0.30479,0.694265 l -0.8128,5.892789 q -0.0677,0.440265 0.11853,0.660398 0.18627,0.220133 0.6604,0.220133 h 4.31799 l -0.0508,1.879597 q -0.77893,0.101599 -1.6764,0.118533 -0.88053,0.03387 -1.79493,0.03387 -0.89746,0.01693 -1.76106,0.01693 -1.35466,0 -1.9812,-0.761999 -0.62653,-0.778932 -0.45719,-2.015063 l 0.93133,-6.705586 q 0.1524,-1.066798 0.84666,-1.676397 0.69427,-0.626532 1.8796,-0.626532 z m -2.7432,4.758257 h 6.89186 l -0.22014,1.811863 h -6.95958 z"
         id="path2" />
    </g>
  </g>
</svg>
